<!-- icon666.com - MILLIONS OF FREE VECTOR ICONS --><svg viewBox="0 -2 512 511" xmlns="http://www.w3.org/2000/svg"><path d="m503.464844 273.550781h-187.730469c0-25.597656 17.066406-51.199219 42.664063-51.199219 11.351562 0 17.664062-13.398437 21.164062-28.328124.511719-2.390626 1.023438-4.867188 1.449219-7.253907h57.175781c.425781 2.386719.9375 4.863281 1.449219 7.253907 3.5 14.929687 9.8125 28.328124 21.164062 28.328124 25.597657 0 42.664063 25.601563 42.664063 51.199219zm0 0" fill="#c7b292"></path><path d="m477.867188 273.550781h-162.132813c0-25.597656 17.066406-51.199219 42.664063-51.199219 11.351562 0 17.664062-13.398437 21.164062-28.328124.511719-2.390626 1.023438-4.867188 1.449219-7.253907h31.574219c.425781 2.386719.9375 4.863281 1.453124 7.253907 3.496094 14.929687 9.8125 28.328124 21.160157 28.328124 25.601562 0 42.667969 25.601563 42.667969 51.199219zm0 0" fill="#ffe0b2"></path><path d="m358.398438 395.066406c.292968 27.445313-10.335938 53.878906-29.539063 73.484375-19.207031 19.605469-45.414063 30.773438-72.859375 31.050781-4.28125.019532-8.558594-.265624-12.800781-.855468-51.449219-7.519532-89.59375-51.640625-89.59375-103.636719s38.144531-96.117187 89.59375-103.636719c4.242187-.585937 8.519531-.871094 12.800781-.855468 27.429688.273437 53.628906 11.429687 72.832031 31.015624 19.207031 19.589844 29.839844 46.003907 29.566407 73.433594zm0 0" fill="#ffa400"></path><path d="m256 145.550781c42.667969 0 51.199219-51.199219 51.199219-51.199219 25.601562-17.066406 0-34.132812 0-34.132812 0-28.277344-22.921875-51.199219-51.199219-51.199219s-51.199219 22.921875-51.199219 51.199219c0 0-25.601562 17.066406 0 34.132812 0 0 8.53125 51.199219 51.199219 51.199219zm0 0" fill="#ffe0b2"></path><path d="m349.867188 222.351562h-187.734376c0-25.597656 17.066407-51.199218 42.667969-51.199218 11.347657 0 17.664063-13.398438 21.160157-28.332032.515624-2.386718 1.027343-4.863281 1.453124-7.25h57.171876c.425781 2.386719.9375 4.863282 1.453124 7.25 3.496094 14.933594 9.8125 28.332032 21.160157 28.332032 25.601562 0 42.667969 25.601562 42.667969 51.199218zm0 0" fill="#ffe0b2"></path><path d="m460.800781 145.550781s-8.535156 51.203125-51.199219 51.203125c-4.335937.050782-8.648437-.554687-12.800781-1.792968-31.660156-8.789063-38.402343-49.410157-38.402343-49.410157-25.597657-17.066406 0-34.132812 0-34.132812-.039063-13.582031 5.371093-26.617188 15.019531-36.179688 6.410156-6.519531 14.503906-11.125 23.382812-13.3125 4.171875-1.132812 8.476563-1.707031 12.800781-1.707031 28.257813.042969 51.15625 22.941406 51.199219 51.199219 0 0 25.597657 17.066406 0 34.132812zm0 0" fill="#c7b292"></path><path d="m102.398438 196.753906c42.667968 0 51.203124-51.203125 51.203124-51.203125 25.597657-17.066406 0-34.132812 0-34.132812 0-28.277344-22.925781-51.199219-51.203124-51.199219-28.277344 0-51.199219 22.921875-51.199219 51.199219 0 0-25.597657 17.066406 0 34.132812 0 0 8.535156 51.203125 51.199219 51.203125zm0 0" fill="#ffe0b2"></path><path d="m196.265625 273.550781h-187.730469c0-25.597656 17.066406-51.199219 42.664063-51.199219 11.351562 0 17.664062-13.398437 21.164062-28.328124.511719-2.390626 1.023438-4.867188 1.449219-7.253907h57.175781c.425781 2.386719.9375 4.863281 1.449219 7.253907 3.5 14.929687 9.8125 28.328124 21.164062 28.328124 25.597657 0 42.664063 25.601563 42.664063 51.199219zm0 0" fill="#ffe0b2"></path><path d="m196.265625 273.550781h-187.730469c0-25.597656 17.066406-51.199219 42.664063-51.199219.484375.015626.972656-.011718 1.453125-.085937 13.613281 10.195313 30.273437 15.488281 47.273437 15.019531 17.542969.53125 34.707031-5.148437 48.46875-16.042968 1.628907.757812 3.410157 1.136718 5.207031 1.109374 25.597657 0 42.664063 25.601563 42.664063 51.199219zm0 0" fill="#02a9f4"></path><path d="m349.160156 221.644531h-187.734375c0-25.601562 17.066407-51.199219 42.664063-51.199219.488281.015626.972656-.011718 1.453125-.085937 13.613281 10.195313 30.273437 15.484375 47.273437 15.019531 17.542969.53125 34.707032-5.152344 48.46875-16.042968 1.628906.757812 3.410156 1.136718 5.207032 1.109374 25.597656 0 42.667968 25.597657 42.667968 51.199219zm0 0" fill="#02a9f4"></path><path d="m503.464844 273.550781h-25.597656c.691406-20.066406-10.191407-38.746093-27.988282-48.042969 2.007813-1.273437 3.917969-2.699218 5.714844-4.265624 1.628906.757812 3.410156 1.136718 5.207031 1.109374 25.597657 0 42.664063 25.601563 42.664063 51.199219zm0 0" fill="#008ac4"></path><path d="m332.800781 395.066406c.457031 52.175782-37.910156 96.570313-89.601562 103.679688-51.449219-7.519532-89.59375-51.640625-89.59375-103.636719s38.144531-96.117187 89.59375-103.636719c51.664062 7.09375 90.027343 51.449219 89.601562 103.59375zm0 0" fill="#fec108"></path><path d="m435.199219 145.550781s-6.742188 40.621094-38.398438 49.410157c-31.660156-8.789063-38.402343-49.410157-38.402343-49.410157-25.597657-17.066406 0-34.132812 0-34.132812-.039063-13.582031 5.371093-26.617188 15.019531-36.179688 6.410156-6.519531 14.503906-11.125 23.382812-13.3125 8.875 2.1875 16.96875 6.792969 23.378907 13.3125 9.652343 9.5625 15.0625 22.597657 15.019531 36.179688 0 0 25.601562 17.066406 0 34.132812zm0 0" fill="#ffe0b2"></path><path d="m477.867188 273.550781h-162.132813c-.503906-18.925781 9.039063-36.710937 25.085937-46.761719h.085938c5.367188-2.921874 11.382812-4.445312 17.492188-4.4375.488281.015626.972656-.011718 1.453124-.085937 9.984376 7.707031 21.867188 12.574219 34.386719 14.082031 4.269531.621094 8.574219.933594 12.886719.9375 15.089844.292969 29.941406-3.796875 42.753906-11.777344 17.796875 9.296876 28.679688 27.976563 27.988282 48.042969zm0 0" fill="#02a9f4"></path><g fill="#cbb292"><path d="m286.039062 142.820312c-17.210937 15.019532-42.867187 15.019532-60.078124 0 .515624-2.386718 1.027343-4.863281 1.453124-7.25 16.734376 13.308594 40.4375 13.308594 57.171876 0 .425781 2.386719.9375 4.863282 1.453124 7.25zm0 0"></path><path d="m439.636719 194.023438c-17.207031 15.019531-42.867188 15.019531-60.074219 0 .511719-2.390626 1.023438-4.867188 1.449219-7.253907 16.734375 13.3125 40.441406 13.3125 57.175781 0 .425781 2.386719.9375 4.863281 1.449219 7.253907zm0 0"></path><path d="m132.4375 194.023438c-8.222656 7.425781-18.957031 11.453124-30.039062 11.261718-11.078126.191406-21.8125-3.835937-30.035157-11.261718.511719-2.390626 1.023438-4.867188 1.449219-7.253907 8.042969 6.617188 18.175781 10.15625 28.585938 9.984375 10.414062.171875 20.546874-3.367187 28.589843-9.984375.425781 2.386719.9375 4.863281 1.449219 7.253907zm0 0"></path></g><path d="m460.800781 213.820312c-5.171875 0-10.128906-9.140624-13.304687-24.058593 10.503906-10.886719 17.78125-24.472657 21.027344-39.25 7.269531-4.753907 11.808593-12.714844 12.183593-21.394531-.570312-8.621094-4.757812-16.597657-11.527343-21.964844-2.246094-31.25-28.25-55.453125-59.578126-55.453125-31.332031 0-57.335937 24.203125-59.582031 55.453125-6.769531 5.363281-10.957031 13.339844-11.527343 21.957031.382812 8.6875 4.9375 16.65625 12.226562 21.402344 3.246094 14.777343 10.523438 28.363281 21.027344 39.25-3.21875 14.917969-8.175782 24.058593-13.347656 24.058593-.210938 0-.398438 0-.613282 0-3.414062-26.019531-22.066406-51.203124-50.585937-51.203124-5.171875 0-10.128907-9.136719-13.300781-24.054688 10.5-10.886719 17.78125-24.476562 21.023437-39.253906 7.273437-4.75 11.808594-12.714844 12.1875-21.390625-.570313-8.621094-4.757813-16.601563-11.53125-21.964844-2.242187-31.25-28.25-55.453125-59.578125-55.453125s-57.335938 24.203125-59.578125 55.453125c-6.769531 5.363281-10.957031 13.335937-11.53125 21.957031.386719 8.6875 4.941406 16.65625 12.230469 21.398438 3.242187 14.777344 10.519531 28.367187 21.023437 39.253906-3.214843 14.917969-8.171875 24.054688-13.34375 24.054688-28.519531 0-47.179687 25.21875-50.585937 51.203124-.214844 0-.402344 0-.613282 0-5.171874 0-10.128906-9.140624-13.304687-24.058593 10.503906-10.886719 17.78125-24.472657 21.027344-39.25 7.269531-4.753907 11.804687-12.714844 12.183593-21.394531-.570312-8.621094-4.757812-16.597657-11.527343-21.964844-2.246094-31.25-28.25-55.453125-59.582031-55.453125-31.328126 0-57.332032 24.203125-59.578126 55.453125-6.769531 5.363281-10.957031 13.339844-11.527343 21.957031.382812 8.6875 4.9375 16.65625 12.226562 21.402344 3.246094 14.777343 10.523438 28.363281 21.027344 39.25-3.21875 14.917969-8.175781 24.058593-13.347656 24.058593-31.625 0-51.199219 31-51.199219 59.730469 0 4.714844 3.820312 8.535157 8.535156 8.535157h85.332032v110.933593c0 4.710938 3.820312 8.53125 8.53125 8.53125h17.066406c4.714844 0 8.535156-3.820312 8.535156-8.53125 0-4.714843-3.820312-8.535156-8.535156-8.535156h-8.53125v-102.398437h85.332031c4.714844 0 8.535156-3.820313 8.535156-8.535157-.027343-15.589843-5.503906-30.683593-15.480469-42.664062h58.144532v25.597656c0 4.714844 3.824218 8.535156 8.535156 8.535156s8.535156-3.820312 8.535156-8.535156v-25.597656h58.144532c-9.976563 11.980469-15.453126 27.074219-15.480469 42.664062 0 2.265625.898437 4.433594 2.5 6.035157 1.601562 1.601562 3.769531 2.5 6.035156 2.5h85.332031v102.398437h-8.53125c-4.714844 0-8.535156 3.820313-8.535156 8.535156 0 4.710938 3.820312 8.53125 8.535156 8.53125h17.066406c4.710938 0 8.53125-3.820312 8.53125-8.53125v-110.933593h85.332032c4.714844 0 8.535156-3.820313 8.535156-8.535157 0-28.730469-19.574219-59.730469-51.199219-59.730469zm-93.988281-69.675781c-.386719-2.324219-1.71875-4.382812-3.675781-5.691406-2.824219-1.878906-7.5625-5.589844-7.578125-9.308594 0-4.105469 5.121094-8.945312 7.578125-10.625 2.371093-1.582031 3.796875-4.246093 3.796875-7.101562 0-23.5625 19.101562-42.664063 42.667968-42.664063 23.5625 0 42.664063 19.101563 42.664063 42.664063.015625 2.835937 1.421875 5.480469 3.765625 7.074219 2.492188 1.707031 7.636719 6.546874 7.609375 10.652343 0 3.71875-4.753906 7.429688-7.578125 9.308594-1.945312 1.308594-3.277344 3.359375-3.675781 5.675781-.308594 1.800782-7.960938 44.089844-42.785157 44.089844-34.824218 0-42.480468-42.289062-42.789062-44.074219zm-153.597656-51.199219c-.390625-2.324218-1.71875-4.382812-3.679688-5.691406-2.824218-1.878906-7.558594-5.589844-7.578125-9.3125 0-4.101562 5.121094-8.941406 7.578125-10.621094 2.375-1.585937 3.796875-4.25 3.796875-7.101562 0-23.5625 19.105469-42.667969 42.667969-42.667969s42.667969 19.105469 42.667969 42.667969c.011719 2.832031 1.417969 5.480469 3.761719 7.074219 2.492187 1.707031 7.636718 6.546875 7.613281 10.648437 0 3.722656-4.753907 7.433594-7.578125 9.3125-1.949219 1.308594-3.277344 3.359375-3.679688 5.671875-.304687 1.800781-7.960937 44.09375-42.785156 44.09375s-42.480469-42.292969-42.785156-44.074219zm-8.414063 86.742188c13.199219 0 22.65625-10.378906 28.277344-30.644531 14.542969 6.722656 31.300781 6.722656 45.84375 0 5.621094 20.265625 15.078125 30.644531 28.277344 30.644531 18.167969 0 30.378906 16.449219 33.398437 34.132812h-169.195312c3.019531-17.683593 15.230468-34.132812 33.398437-34.132812zm-145.1875-35.542969c-.386719-2.324219-1.71875-4.382812-3.675781-5.691406-2.824219-1.878906-7.5625-5.589844-7.578125-9.308594 0-4.105469 5.117187-8.945312 7.578125-10.625 2.371094-1.582031 3.796875-4.246093 3.796875-7.101562 0-23.5625 19.101563-42.664063 42.664063-42.664063 23.566406 0 42.667968 19.101563 42.667968 42.664063.015625 2.835937 1.421875 5.480469 3.761719 7.074219 2.492187 1.707031 7.640625 6.546874 7.613281 10.652343 0 3.71875-4.753906 7.429688-7.578125 9.308594-1.949219 1.308594-3.277343 3.359375-3.675781 5.675781-.308594 1.800782-7.964844 44.089844-42.789062 44.089844-34.824219 0-42.476563-42.289062-42.785157-44.074219zm-41.8125 120.875c3.019531-17.679687 15.230469-34.132812 33.398438-34.132812 13.203125 0 22.65625-10.378907 28.28125-30.644531 14.539062 6.722656 31.300781 6.722656 45.839843 0 5.625 20.265624 15.078126 30.644531 28.28125 30.644531 18.164063 0 30.378907 16.453125 33.398438 34.132812zm307.199219 0c3.019531-17.679687 15.234375-34.132812 33.398438-34.132812 13.203124 0 22.65625-10.378907 28.28125-30.644531 14.539062 6.722656 31.300781 6.722656 45.839843 0 5.625 20.265624 15.078125 30.644531 28.28125 30.644531 18.167969 0 30.378907 16.453125 33.398438 34.132812zm0 0"></path><path d="m177.492188 474.9375c10.066406 10.304688 22.046874 18.539062 35.269531 24.246094 27.601562 11.878906 58.875 11.878906 86.476562 0 13.222657-5.707032 25.203125-13.941406 35.269531-24.246094 10.136719-10.339844 18.195313-22.53125 23.730469-35.914062 11.597657-28.152344 11.597657-59.746094 0-87.894532-5.539062-13.371094-13.59375-25.554687-23.730469-35.882812-20.625-21.191406-48.9375-33.148438-78.507812-33.148438s-57.882812 11.957032-78.507812 33.148438c-10.144532 10.351562-18.199219 22.5625-23.730469 35.960937-11.597657 28.148438-11.597657 59.742188 0 87.890625 5.546875 13.355469 13.601562 25.523438 23.730469 35.839844zm-7.960938-117.253906c4.695312-11.371094 11.539062-21.730469 20.15625-30.507813 8.519531-8.730469 18.664062-15.703125 29.867188-20.53125 23.285156-10.019531 49.664062-10.019531 72.949218 0 11.203125 4.824219 21.351563 11.792969 29.867188 20.523438 8.617187 8.777343 15.460937 19.136719 20.15625 30.507812 9.867187 23.957031 9.867187 50.84375 0 74.800781-4.710938 11.378907-11.574219 21.738282-20.214844 30.515626-17.410156 17.917968-41.328125 28.027343-66.3125 28.027343s-48.902344-10.109375-66.3125-28.027343c-8.617188-8.777344-15.460938-19.132813-20.15625-30.496094-9.863281-23.960938-9.863281-50.847656 0-74.804688zm0 0"></path><path d="m231.851562 395.722656c6.398438 6.410156 15.089844 10.003906 24.148438 9.984375 8.132812-.019531 15.152344 5.707031 16.765625 13.679688 1.617187 7.96875-2.617187 15.972656-10.117187 19.125-6.417969 2.730469-13.851563 1.285156-18.773438-3.652344-1.554688-1.554687-2.789062-3.394531-3.644531-5.421875-1.183594-2.808594-3.777344-4.773438-6.804688-5.152344-3.023437-.378906-6.019531.886719-7.863281 3.316406-1.839844 2.429688-2.242188 5.660157-1.058594 8.46875 3.457032 8.183594 9.96875 14.699219 18.148438 18.160157 1.554687.605469 3.148437 1.097656 4.773437 1.472656v14.117187c0 4.710938 3.820313 8.53125 8.53125 8.53125 4.714844 0 8.535157-3.820312 8.535157-8.53125v-14.117187c1.617187-.371094 3.207031-.863281 4.75-1.472656 12.652343-5.332031 20.878906-17.726563 20.878906-31.457031 0-13.726563-8.226563-26.121094-20.878906-31.453126-4.191407-1.765624-8.691407-2.675781-13.242188-2.679687-2.289062.007813-4.554688-.445313-6.664062-1.332031-6.324219-2.667969-10.421876-8.871094-10.402344-15.734375-.023438-4.523438 1.757812-8.867188 4.953125-12.070313 3.191406-3.203125 7.53125-5.003906 12.054687-4.996094h.117188c6.839844-.003906 13.011718 4.09375 15.667968 10.394532 1.183594 2.808594 3.777344 4.773437 6.804688 5.152344 3.023438.378906 6.019531-.886719 7.863281-3.316407 1.839844-2.429687 2.242188-5.65625 1.058594-8.46875-3.457031-8.183593-9.972656-14.699219-18.15625-18.15625-1.550781-.597656-3.144531-1.082031-4.761719-1.453125v-13.90625c0-4.714844-3.824218-8.535156-8.535156-8.535156s-8.535156 3.820312-8.535156 8.535156v13.90625c-1.617188.375-3.210938.867188-4.761719 1.46875-10.464844 4.417969-18.050781 13.753906-20.226563 24.90625-2.179687 11.152344 1.335938 22.65625 9.375 30.6875zm0 0"></path></svg>